<?xml version="1.0" encoding="utf-8"?>
<!-- Generator: Adobe Illustrator 16.0.3, SVG Export Plug-In . SVG Version: 6.00 Build 0)  -->
<!DOCTYPE svg PUBLIC "-//W3C//DTD SVG 1.1//EN" "http://www.w3.org/Graphics/SVG/1.1/DTD/svg11.dtd">
<svg version="1.1" id="Capa_1" xmlns="http://www.w3.org/2000/svg" xmlns:xlink="http://www.w3.org/1999/xlink" x="0px" y="0px"
	 width="1920px" height="1120px" viewBox="0 0 1920 1120" enable-background="new 0 0 1920 1120" xml:space="preserve">
<ellipse fill="#DADADA" cx="1462.352" cy="1008.767" rx="103" ry="7.313"/>
<ellipse fill="#DADADA" cx="772.186" cy="978.817" rx="445.07" ry="6.66"/>
<g>
	<g>
		<path fill="#EDEDED" d="M1640.143,603.302h-79.982c-2.082,0-3.768-1.645-3.768-3.674v-69.441c0-2.028-1.688-3.673-3.768-3.673
			h-5.668c-2.082,0-3.768-1.645-3.768-3.673v-13.521c0-2.028-1.688-3.672-3.768-3.672h-4.141c-2.08,0-3.768-1.645-3.768-3.673
			v-53.358c0-2.028-1.686-3.673-3.768-3.673h-99.498c-2.08,0-3.768,1.645-3.768,3.673v53.358c0,2.028-1.686,3.673-3.768,3.673
			h-19.059c-2.08,0-3.768,1.644-3.768,3.672v13.521c0,2.028-1.686,3.673-3.766,3.673h-22.705c-2.08,0-3.768-1.645-3.768-3.673
			v-102.68c0-2.028-1.686-3.672-3.766-3.672h-47.719c-2.08,0-3.768-1.645-3.768-3.673V323.99c0-2.028-1.686-3.672-3.766-3.672
			h-3.072c-2.08,0-3.768-1.645-3.768-3.673v-32.118c0-2.028-1.688-3.673-3.768-3.673h-25.072c-2.08,0-3.768,1.645-3.768,3.673
			v32.118c0,2.028-1.686,3.673-3.766,3.673h-35.68c-2.08,0-3.768,1.644-3.768,3.672v88.826c0,2.028-1.686,3.673-3.766,3.673h-45.93
			c-2.08,0-3.766-1.645-3.766-3.673V222.402c0-2.029-1.688-3.673-3.768-3.673h-107.178c-2.08,0-3.768,1.644-3.768,3.673v260.603
			c0,2.028-1.688,3.673-3.768,3.673h-42.16c-2.08,0-3.768-1.645-3.768-3.673v-94.379c0-2.028-1.688-3.673-3.768-3.673h-17.211
			c-2.08,0-3.768-1.644-3.768-3.673V207.505c0-2.028-1.686-3.673-3.766-3.673h-4.211c-2.082,0-3.768-1.645-3.768-3.673V174.21
			c0-2.028-1.688-3.673-3.768-3.673h-4.652c-2.08,0-3.766-1.644-3.766-3.672v-25.95c0-2.028-1.687-3.672-3.768-3.672h-9.979
			c-2.08,0-3.767-1.645-3.767-3.673v-25.949c0-2.028-1.687-3.673-3.768-3.673h-22.14c-2.08,0-3.767,1.645-3.767,3.673v25.949
			c0,2.028-1.688,3.673-3.768,3.673h-10.141c-2.08,0-3.767,1.644-3.767,3.672v25.95c0,2.028-1.687,3.672-3.768,3.672h-6.64
			c-2.08,0-3.768,1.645-3.768,3.673v25.949c0,2.028-1.687,3.673-3.767,3.673h-4.211c-2.08,0-3.767,1.645-3.767,3.673V381.28
			c0,2.029-1.688,3.673-3.768,3.673h-17.211c-2.08,0-3.768-1.644-3.768-3.673v-57.151c0-2.028-1.687-3.673-3.767-3.673H683.463
			c-2.08,0-3.767,1.645-3.767,3.673v105.76c0,2.028-1.687,3.673-3.768,3.673h-17.211c-2.08,0-3.767-1.645-3.767-3.673V302.475
			v-29.622c0-2.027-1.687-3.672-3.768-3.672h-7.79c-2.081,0-3.768-1.645-3.768-3.673v-25.949c0-2.028-1.687-3.673-3.767-3.673
			h-74.029c-2.081,0-3.768,1.645-3.768,3.673v25.949c0,2.028-1.687,3.673-3.768,3.673h-10.289c-2.08,0-3.767,1.645-3.767,3.672
			v29.622v127.414c0,2.028-1.687,3.673-3.768,3.673h-17.211c-2.081,0-3.768,1.645-3.768,3.673v112.165
			c0,2.028-1.687,3.672-3.767,3.672h-81.356c-2.08,0-3.767-1.644-3.767-3.672v-70.468c0-2.028-1.687-3.673-3.768-3.673h-67.777
			c-2.081,0-3.768,1.645-3.768,3.673v74.14v73.318c0,2.027-1.687,3.672-3.768,3.672h-67.777c-2.081,0-3.768,1.645-3.768,3.672
			v184.244c0,2.027,1.687,3.672,3.768,3.672h14.018h57.527h164.202h164.203h164.202h164.203h115.936h243.611h56.832h107.033h24.879
			h83.488c2.225,0,4.029-1.805,4.029-4.029l0,0v-84.67V606.974C1643.91,604.946,1642.223,603.302,1640.143,603.302z"/>
	</g>
</g>
<g>
	<g>
		<g>
			
				<line fill="none" stroke="#C6C6C6" stroke-width="3" stroke-linecap="round" stroke-linejoin="round" x1="444.138" y1="398.865" x2="448.603" y2="396.614"/>
			
				<polyline fill="none" stroke="#C6C6C6" stroke-width="3" stroke-linecap="round" stroke-linejoin="round" stroke-dasharray="10.0477,10.0477" points="
				457.574,392.089 938.059,149.779 1387.709,254.216 			"/>
			
				<line fill="none" stroke="#C6C6C6" stroke-width="3" stroke-linecap="round" stroke-linejoin="round" x1="1392.603" y1="255.352" x2="1397.473" y2="256.483"/>
		</g>
	</g>
	<g>
		<g>
			<path fill="#269880" d="M968.898,131.771c0.033-0.573,0.031-0.922,0.029-1.04c0-0.017,0-0.033,0-0.05
				c0-15.18-13.819-27.485-30.867-27.485c-17.049,0-30.869,12.306-30.869,27.485c0,0-0.016,0.396,0.033,1.171
				c0.071,1.495,0.301,2.954,0.599,4.384c3.457,16.625,15.216,34.909,23.012,45.657c3.452,4.76,10.964,4.794,14.452,0.058
				c16.507-22.414,21.498-37.96,23-45.676C968.627,134.813,968.83,133.309,968.898,131.771z"/>
			<circle fill="#FFFFFF" cx="938.059" cy="130.898" r="18.881"/>
		</g>
		<g>
			<path fill="#269880" d="M1452.814,250.422c0.045-0.76,0.043-1.221,0.039-1.378c0-0.021,0.002-0.043,0.002-0.064
				c0-20.092-18.293-36.38-40.857-36.38s-40.857,16.288-40.857,36.38c0,0-0.02,0.523,0.045,1.549
				c0.094,1.979,0.398,3.91,0.791,5.803c4.576,22.005,20.141,46.205,30.459,60.432c4.568,6.3,14.512,6.345,19.129,0.075
				c21.848-29.667,28.455-50.242,30.443-60.455C1452.457,254.448,1452.725,252.455,1452.814,250.422z"/>
			<circle fill="#FFFFFF" cx="1411.997" cy="249.266" r="24.991"/>
		</g>
		<g>
			<path fill="#269880" d="M452.07,399.444c0.022-0.38,0.021-0.611,0.02-0.689c0-0.012,0.001-0.022,0.001-0.033
				c0-10.069-9.167-18.232-20.477-18.232c-11.309,0-20.477,8.163-20.477,18.232c0,0-0.01,0.263,0.022,0.776
				c0.047,0.992,0.199,1.96,0.396,2.908c2.293,11.028,10.094,23.157,15.265,30.287c2.29,3.157,7.273,3.18,9.588,0.037
				c10.949-14.868,14.261-25.18,15.257-30.298C451.89,401.463,452.025,400.464,452.07,399.444z"/>
			<circle fill="#FFFFFF" cx="431.613" cy="398.865" r="12.525"/>
		</g>
	</g>
</g>
<g>
	<path fill="#F8A492" d="M1513.773,843.669c-1.174-3.045-3.92-5.904-4.922-9.686c-0.336-1.271-0.49-3.031-0.535-4.947
		c1.018-14.193,3.824-51.061,3.344-52.9c-0.566-2.178-18.068-40.656-18.068-40.656l-14.697,13.699l17.002,34.898
		c0.143,2.039,1.475,39.84,1.475,39.84s0.475,7.662,0.43,11.639c-0.141,1.932-0.535,3.625-0.93,5.074
		c-0.494,1.824-1.02,5.59-0.908,6.498c0.127,1.055,0.461,3.225,0.68,4.527c0.217,1.301,0.42,2.838,0.617,3.514
		c0.121,0.41,0.023,1.363-0.07,2.047c-0.143,1.018,1.043,1.686,1.83,1.027c0.74-0.621,0.969-1.99,1.107-2.842
		c0.391-2.402-0.389-6.199-0.027-6.125c0.359,0.074,3.74,5.705,4.168,6.324s4.391,7.141,5.578,8.15s2.01,0.438,1.936-0.459
		c-0.064-0.771-4.875-10.189-4.875-10.189s-0.609-1.201,0.09-1.025c0.697,0.174,5.082,8.715,5.973,9.867
		c0.891,1.15,2.025,1.5,2.35,0.162c0.395-1.625-4.846-10.451-4.846-10.451s-0.637-1.117-0.09-1.207
		c0.549-0.088,4.158,7.24,4.809,7.742c0.65,0.5,1.734,0.344,1.779-0.938c0.051-1.506-4.693-9.346-4.693-9.346
		s-0.191-0.697,0.211-0.6s3.922,6.125,4.809,6.463c0.742,0.283,1.008-0.381,1.008-0.381
		C1519.18,852.099,1514.947,846.714,1513.773,843.669z"/>
	<path fill="#F8A492" d="M1360.906,792.657c5.189,1.621,4.805,2.613,5.473,2.799c0.791,0.219,10.705-4.395,10.705-4.395
		s29.301-13.357,30.859-14.146l10.807-33.486l13.811,8.135c0,0-12.281,37.387-13.828,38.65c-1.547,1.262-43.059,13.535-46.68,14.762
		c0,0-3.813,3.453-6.268,5.521c-2.453,2.07-5.578,2.645-6.346,3.092c-0.113,0.064-2.75,1.367-6.379,1.887
		c-3.129,0.445-0.389-1.754-0.389-1.754s5.629-2.117,5.398-2.643c-0.178-0.406-3.189,0.977-6.645,1.518
		c-0.889,0.137-1.766,0.27-2.572,0.385c-2.119,0.299-2.928-1.227-0.768-1.979c0.764-0.266,2.041-0.666,2.99-0.793
		c1.025-0.137,1.918-0.672,2.76-0.949c1.672-0.551,2.898-0.926,2.84-1c-0.078-0.096,0.182-0.496-0.768-0.387
		c-1.139,0.135-3.486,1.08-5.18,1.115c-0.961,0.02-2.961,0.213-2.961,0.213s-3.285-0.127-3.334-0.355
		c-0.266-1.246,2.078-1.98,3.393-1.797c0.867-0.41,2.979-0.539,2.979-0.539s4.18-1.445,3.998-2.188
		c-0.15-0.607-10.789,0.439-10.984-0.828c-0.16-1.035,3.023-1.527,3.023-1.527s1.949-0.115,2.594-0.215
		c0.754-0.117,2.984-0.682,2.984-0.682s7.672-2.414,7.451-3.1c-0.221-0.688-1.35-2.199-1.873-2.256
		c-0.525-0.057-1.51,0.461-2.033,0.404c-0.523-0.055-1.189-0.682-1.211-1.479s2.555-1.721,2.555-1.721
		S1359.408,792.19,1360.906,792.657z"/>
	<path fill="#F48C7F" d="M1499.443,980.079c0,0,4.002,3.918,4.094,5.355c0.09,1.436,0.354,16.834-1.279,18.271
		c-1.635,1.438-6.434,2.457-4.891,4.074c1.166,1.221,10.137,0.961,16.084,0.633c1.736-0.096,3.912-13.984,4.6-16.025
		c0.998-2.965,3.426-9.643,2.52-11.709c-0.443-1.006-2.559-3.076-5.541-5.006c-3.135-2.031-6.137-6.555-6.137-6.555
		L1499.443,980.079z"/>
	<path fill="#F7A491" d="M1457.449,989.2c0,0,3.582,10.146,3.586,10.174c0.268,1.607,1.316,5.578,1.316,7.039
		c0,5.492-24.689-4.66-19.156-7.094c0.5-0.219,2.072-1.979,2.236-3.846c0.254-2.881-2.08-6.49-2.08-6.49L1457.449,989.2z"/>
	<g>
		<path fill="#1D1D1B" d="M1418.721,800.253c0,0-1.801,18.189-1.801,18.461c0,29.426-5.816,86.902-4.711,92.436
			c2.699,13.492,31.74,82.326,31.74,82.326l15.697-1.881l-20.453-82.414l7.525-33.172l10.652-65.57L1418.721,800.253z"/>
		<path fill="#1D1D1B" d="M1471.4,816.341l2.979,17.24l8.057,70.957l30.689,69.348c0,0-4.316,10.09-10.686,11.508l-48.844-71.199
			l-30.34-91.105l1.066-20.24L1471.4,816.341z"/>
	</g>
	<path fill="#269880" d="M1412.459,756.942l21.768,2.229c0,0,0.998-17.896,0.998-26.432c0-10.357-0.881-23.695-2.127-23.408
		c-3.5,0.805-8.213,2.744-11.02,6.609C1412.367,729.321,1412.459,756.942,1412.459,756.942z"/>
	<path fill="#269880" d="M1423.152,730.913c-0.455,3.156-8.822,88.998-8.822,88.998c39.631,19.195,61.498,3.42,61.498,3.42
		s-1.297-60.279,0.258-68.484c1.029-5.428,2.311-41.498-1.197-42.508c-4.502-1.297-9.662-2.674-15.287-3.26
		c-4.803-0.5-23.455-0.789-26.793,0.336C1432.809,709.415,1425.07,717.634,1423.152,730.913z"/>
	<path fill="#269880" d="M1503.178,748.757l-18.855,12.695c0,0-10.627-15.859-16.332-21.504c-7.145-7.074,2.604-28.74,7.209-27.516
		C1485.498,715.175,1503.178,748.757,1503.178,748.757z"/>
	<path fill="#3C3C3B" d="M1514.836,975.573c0,0-9.225,26.047-12.834,27.305c-0.959,0.334-5.561,1.18-6.428,3.221
		c-0.262,0.615,0,2.668,0,2.668h19.227c0,0,2.432-11.477,3.393-16.518c0,0,5.09-12.32,4.523-13.439
		C1522.152,977.688,1514.836,975.573,1514.836,975.573z"/>
	<path fill="#3C3C3B" d="M1463.756,1008.226l-2.828-8.957c0,0-5.938,2.52-8.906,2.1s-8.766-2.1-8.766-2.1
		c-11.85,3.912-21.557,5.811-19.791,8.957l0,0H1463.756z"/>
	<path fill="#F7A491" d="M1454.334,691.454l2.916,17.877c0,0-10.674,22.748-17.051,20.834c-5.352-1.607-2.061-21.145-2.061-21.145
		s2.918-10.492,2.043-15.744C1439.307,688.026,1454.334,691.454,1454.334,691.454z"/>
	<path fill="#F47458" d="M1440.182,693.276c-0.875-5.25,14.152-1.822,14.152-1.822l0.242,1.537c-0.439,1.029-0.977,1.91-1.629,2.584
		c-3.357,3.477-8.604,5.563-13.141,5.721C1440.262,698.464,1440.539,695.431,1440.182,693.276z"/>
	<path fill="#F7A491" d="M1456.799,665.218c0.424-0.148,3.404,21.121-2.25,26.975c-5.654,5.852-16.672,7.768-20.623,3.158
		c-4.371-5.1-4.15-27.959,4.641-33.979C1447.357,655.351,1456.799,665.218,1456.799,665.218z"/>
	<path fill="#B75742" d="M1454.727,657.022c3.086,0.352,7.279,1.992,11.609,8.887c5.324,8.48,1.393,17.875-4.807,22.484
		c-6.197,4.609-6.086,9.887-6.086,9.887l-1.006-2.707c-0.723-2.086-1.018-4.299-0.775-6.488c0.145-1.313,0.438-2.732,1.002-3.898
		c1.49-3.078-3.203-5.125-4.518-7.686c-1.014-1.971-1.063-6.482-2.66-9.742l-1.906-2.488c0,0-4.398-3.293-8.701-2.363
		C1432.576,663.835,1437.861,643.644,1454.727,657.022z"/>
	
		<ellipse transform="matrix(-0.9999 -0.0166 0.0166 -0.9999 2894.9885 1386.7223)" fill="#F7A491" cx="1453.256" cy="681.333" rx="2.821" ry="4.7"/>
	<path fill="#FFFFFF" d="M1440.814,686.978l-7.721-1.539c0,0-0.406,2.977,2.971,3.752
		C1440.18,690.136,1440.814,686.978,1440.814,686.978z"/>
</g>
<g>
	<path fill="#488577" d="M1324.301,878.741h39.023c2.846,0,5.152-2.309,5.152-5.154v-6.508h-49.328v6.508
		C1319.148,876.433,1321.455,878.741,1324.301,878.741z"/>
	<rect x="1319.98" y="826.312" fill="#15866D" width="47.664" height="40.768"/>
	<g>
		<polygon fill="#488577" points="1319.148,826.312 1368.477,826.312 1366.521,814.649 1319.738,814.649 		"/>
		<path fill="#488577" d="M1338.201,803.358h23.322l0,0c2.762,0,4.998,2.238,4.998,4.998v0.23v6.063h-4.998v-5.426
			c0-0.352-0.285-0.637-0.635-0.637h-22.051c-0.352,0-0.637,0.285-0.637,0.637v5.426h-4.998v-6.063v-0.23
			C1333.203,805.597,1335.441,803.358,1338.201,803.358L1338.201,803.358z"/>
		<polygon fill="#488577" points="1333.203,814.649 1319.738,814.649 1320.059,810.993 1331.965,810.993 		"/>
		<rect x="1320.59" y="808.755" fill="#15866D" width="10.844" height="2.238"/>
		<rect x="1319.75" y="806.481" fill="#488577" width="12.523" height="2.273"/>
		<path fill="#3C3C3B" d="M1320.059,806.481h11.906v-5.109c0-0.619-0.502-1.119-1.121-1.119h-9.664c-0.619,0-1.121,0.5-1.121,1.119
			V806.481z"/>
	</g>
	<g>
		<path fill="#FFFFFF" d="M1341.631,850.12c-0.674-0.244-1.279-0.604-1.805-1.094c-0.836-0.779-1.334-1.742-1.539-2.863
			c-0.08-0.443-0.1-0.891-0.076-1.336c0.045-0.816,0.301-1.576,0.668-2.301c0.467-0.916,1.041-1.764,1.652-2.586
			c0.609-0.824,1.24-1.631,1.844-2.459c0.336-0.459,0.643-0.939,0.943-1.422c0.17-0.273,0.293-0.574,0.316-0.918
			c0.078,0.139,0.162,0.275,0.232,0.42c0.268,0.555,0.391,1.143,0.365,1.754c-0.025,0.582-0.166,1.139-0.412,1.666
			c-0.174,0.373-0.309,0.76-0.346,1.172c-0.051,0.549-0.002,1.086,0.371,1.535c0.273,0.332,0.645,0.5,1.057,0.574
			c0.535,0.094,1.045,0.02,1.512-0.271c0.508-0.316,0.781-0.791,0.902-1.367c0.01-0.043,0.02-0.086,0.033-0.143
			c0.025,0.033,0.045,0.053,0.057,0.076c0.42,0.764,0.852,1.52,1.256,2.291c0.289,0.551,0.48,1.137,0.574,1.754
			c0.1,0.654,0.049,1.301-0.139,1.934c-0.551,1.852-1.764,3.074-3.563,3.738c-0.01,0.002-0.021,0.006-0.031,0.008
			c-0.006,0-0.012-0.006,0.006,0.002c0.176-0.207,0.377-0.406,0.535-0.635c0.389-0.557,0.539-1.184,0.477-1.857
			c-0.057-0.6-0.326-1.111-0.725-1.559c-0.23-0.26-0.502-0.469-0.781-0.668c-0.748-0.533-1.4-1.162-1.916-1.926
			c-0.35-0.52-0.617-1.076-0.746-1.693c-0.006-0.029-0.021-0.057-0.037-0.102c-0.037,0.035-0.068,0.061-0.096,0.09
			c-0.791,0.875-1.422,1.854-1.922,2.922c-0.188,0.4-0.322,0.82-0.373,1.26c-0.094,0.799,0.014,1.57,0.352,2.305
			c0.307,0.668,0.742,1.234,1.334,1.678C1341.619,850.104,1341.625,850.112,1341.631,850.12z"/>
		<path fill="#FFFFFF" d="M1343.047,855.89c0,0.738,0,1.479,0,2.219c0,0.139,0,0.139-0.145,0.139c-0.195,0-0.389-0.002-0.584,0.002
			c-0.078,0.002-0.111-0.018-0.109-0.104c0.004-0.406-0.002-0.813,0.004-1.219c0.002-0.135,0.027-0.27,0.039-0.404
			c0.004-0.021-0.012-0.047-0.018-0.07c-0.023,0.008-0.057,0.012-0.068,0.029c-0.379,0.57-1.309,0.566-1.826,0.211
			c-0.465-0.32-0.693-0.771-0.736-1.322c-0.035-0.479,0.051-0.926,0.336-1.324c0.424-0.588,1.277-0.811,1.871-0.469
			c0.125,0.074,0.225,0.191,0.338,0.289c0.025,0.02,0.055,0.035,0.082,0.053c0.014-0.033,0.025-0.064,0.037-0.098
			c0.004-0.008,0.002-0.014,0.002-0.021c0.002-0.268,0.002-0.268,0.266-0.268c0.133,0,0.266,0.004,0.396-0.002
			c0.092-0.006,0.119,0.027,0.117,0.119c-0.004,0.375-0.002,0.75-0.002,1.125C1343.047,855.146,1343.047,855.517,1343.047,855.89z
			 M1340.42,855.177c0.006,0.059,0.016,0.117,0.02,0.176c0.061,0.652,0.785,1.027,1.352,0.701s0.645-1.219,0.145-1.641
			c-0.191-0.16-0.416-0.25-0.662-0.219C1340.744,854.261,1340.424,854.642,1340.42,855.177z"/>
		<path fill="#FFFFFF" d="M1335.514,853.884c0-0.074,0.004-0.148,0-0.223c-0.004-0.068,0.025-0.092,0.092-0.092
			c0.195,0.002,0.391,0.006,0.584,0c0.094-0.004,0.125,0.023,0.125,0.121c-0.004,0.955-0.002,1.912-0.002,2.867
			c0,0.273,0,0.273-0.27,0.273c-0.146,0-0.293-0.004-0.438,0c-0.068,0.002-0.096-0.023-0.092-0.092c0.004-0.074,0-0.148,0-0.246
			c-0.049,0.031-0.074,0.041-0.094,0.059c-0.684,0.619-1.732,0.441-2.25-0.404c-0.211-0.342-0.275-0.717-0.244-1.117
			c0.031-0.385,0.154-0.729,0.404-1.027c0.514-0.611,1.406-0.699,2.027-0.199c0.039,0.033,0.082,0.063,0.123,0.092
			C1335.49,853.892,1335.502,853.888,1335.514,853.884z M1335.539,855.208c0-0.037,0-0.064,0-0.092
			c-0.004-0.359-0.166-0.635-0.477-0.797c-0.316-0.164-0.645-0.154-0.945,0.051c-0.471,0.316-0.539,1.07-0.156,1.514
			c0.338,0.391,0.957,0.383,1.279,0.072C1335.455,855.749,1335.557,855.497,1335.539,855.208z"/>
		<path fill="#FFFFFF" d="M1353.906,853.919c0-0.115-0.006-0.195,0.004-0.273c0.004-0.027,0.045-0.07,0.07-0.072
			c0.215-0.006,0.432-0.006,0.646,0c0.025,0.002,0.055,0.043,0.072,0.072c0.012,0.018,0.004,0.047,0.004,0.072
			c0,0.99,0,1.979,0,2.969c0,0.145,0,0.145-0.15,0.145c-0.18-0.002-0.361-0.004-0.541,0c-0.084,0.004-0.113-0.027-0.105-0.107
			c0.006-0.064,0.006-0.129,0.01-0.223c-0.055,0.031-0.1,0.047-0.131,0.076c-0.6,0.537-1.566,0.434-2.1-0.256
			c-0.246-0.318-0.361-0.674-0.369-1.072c-0.01-0.568,0.162-1.059,0.605-1.434c0.527-0.447,1.309-0.447,1.84-0.006
			C1353.801,853.841,1353.842,853.87,1353.906,853.919z M1353.016,854.224c-0.203-0.021-0.391,0.049-0.555,0.186
			c-0.316,0.264-0.432,0.709-0.295,1.139c0.207,0.66,1.023,0.857,1.508,0.367c0.217-0.221,0.285-0.494,0.271-0.793
			C1353.918,854.509,1353.43,854.183,1353.016,854.224z"/>
		<path fill="#FFFFFF" d="M1350.855,856.069c-0.238,0.416-0.563,0.701-1.018,0.807c-0.707,0.162-1.344,0.041-1.838-0.525
			c-0.348-0.398-0.457-0.879-0.393-1.398c0.07-0.557,0.338-0.99,0.813-1.293c0.24-0.15,0.504-0.223,0.787-0.238
			c0.4-0.02,0.771,0.064,1.098,0.305c0.355,0.262,0.537,0.629,0.6,1.057c0.023,0.148,0.02,0.303,0.021,0.455
			c0.002,0.094-0.035,0.137-0.143,0.137c-0.748-0.006-1.494-0.004-2.24-0.004c-0.146,0-0.148,0.006-0.113,0.148
			c0.096,0.391,0.414,0.652,0.816,0.684c0.373,0.031,0.672-0.098,0.9-0.391c0.02-0.025,0.068-0.053,0.088-0.043
			C1350.438,855.862,1350.639,855.964,1350.855,856.069z M1350.121,854.776c-0.016-0.41-0.418-0.699-0.922-0.678
			c-0.338,0.014-0.748,0.391-0.732,0.678C1349.016,854.776,1349.566,854.776,1350.121,854.776z"/>
		<path fill="#FFFFFF" d="M1346.125,856.413c-0.035,0.031-0.072,0.061-0.102,0.098c-0.23,0.279-0.531,0.412-0.891,0.426
			c-0.256,0.01-0.506-0.021-0.73-0.16c-0.291-0.18-0.436-0.459-0.5-0.783c-0.029-0.148-0.043-0.303-0.043-0.455
			c-0.006-0.629-0.004-1.256-0.004-1.885c0-0.115,0.033-0.145,0.148-0.141c0.188,0.008,0.375,0.02,0.561,0.016
			c0.1,0,0.133,0.025,0.131,0.129c-0.004,0.617-0.004,1.236,0,1.854c0.002,0.096,0.02,0.195,0.055,0.283
			c0.203,0.533,0.879,0.467,1.154,0.088c0.131-0.18,0.201-0.381,0.203-0.602c0.004-0.537,0.004-1.076,0-1.615
			c-0.002-0.102,0.021-0.141,0.131-0.137c0.201,0.01,0.402,0.006,0.605,0.002c0.074-0.002,0.104,0.02,0.104,0.1
			c-0.002,1.031-0.002,2.064,0,3.096c0,0.084-0.027,0.107-0.107,0.105c-0.188-0.004-0.375-0.006-0.563,0
			c-0.092,0.004-0.113-0.031-0.111-0.115c0.004-0.098-0.006-0.195-0.01-0.293C1346.146,856.419,1346.135,856.415,1346.125,856.413z"
			/>
		<path fill="#FFFFFF" d="M1337.994,853.972c0.025-0.027,0.057-0.051,0.078-0.08c0.271-0.377,0.646-0.508,1.094-0.449
			c0.211,0.027,0.211,0.035,0.215,0.246c0.002,0.205,0,0.408,0,0.613c-0.139-0.029-0.266-0.061-0.395-0.08
			c-0.459-0.072-0.832,0.178-0.938,0.633c-0.033,0.137-0.043,0.281-0.045,0.422c-0.006,0.48-0.004,0.959,0,1.439
			c0,0.092-0.029,0.119-0.119,0.117c-0.201-0.008-0.402-0.006-0.604-0.002c-0.072,0.002-0.1-0.02-0.1-0.094
			c0.002-1.039,0-2.078,0-3.117c0-0.068,0.025-0.09,0.092-0.09c0.199,0.004,0.396,0.004,0.594,0c0.076-0.002,0.096,0.031,0.094,0.1
			c-0.004,0.107-0.002,0.215-0.002,0.32C1337.971,853.958,1337.982,853.964,1337.994,853.972z"/>
		<path fill="#FFFFFF" d="M1344.029,850.532c-0.232,0-0.459,0.004-0.686-0.004c-0.035-0.002-0.072-0.051-0.1-0.084
			c-0.451-0.586-0.725-1.25-0.867-1.973c-0.125-0.625-0.139-1.258-0.123-1.893c0.006-0.211,0.029-0.42,0.045-0.631
			c0.02,0.23,0.037,0.461,0.061,0.691c0.127,1.244,0.443,2.42,1.244,3.418c0.104,0.129,0.221,0.248,0.332,0.373
			C1343.967,850.466,1344,850.499,1344.029,850.532z"/>
	</g>
</g>
<g>
	<g>
		<g>
			<g>
				<g>
					<circle fill="#656565" cx="1069.103" cy="909.28" r="70.044"/>
				</g>
				<g>
					<circle fill="#656565" cx="1066.392" cy="909.28" r="37.249"/>
				</g>
			</g>
		</g>
		<g>
			<g>
				<g>
					<circle fill="#656565" cx="624.568" cy="911.06" r="70.044"/>
				</g>
				<g>
					<circle fill="#656565" cx="621.857" cy="911.06" r="37.248"/>
				</g>
			</g>
		</g>
	</g>
	<g>
		<g>
			<g>
				<g>
					<rect x="941.532" y="846.601" fill="#9F9F9F" width="243.652" height="58.596"/>
					<path fill="#51AD99" d="M1176.398,855.573H948.014c-1.657,0-3-1.344-3-3s1.343-3,3-3h228.384c1.656,0,3,1.344,3,3
						S1178.055,855.573,1176.398,855.573z"/>
				</g>
				<g>
					<path fill="#FFFFFF" d="M950.734,870.009v17.002c0,4.99,3.464,9.033,7.738,9.033l0,0c4.274,0,7.737-4.043,7.737-9.033v-17.002
						c0-4.988-3.463-9.033-7.737-9.033l0,0C954.198,860.976,950.734,865.021,950.734,870.009z"/>
					<path fill="#FFFFFF" d="M1160.922,870.009v17.002c0,4.99,3.465,9.033,7.738,9.033l0,0c4.275,0,7.738-4.043,7.738-9.033v-17.002
						c0-4.988-3.463-9.033-7.738-9.033l0,0C1164.387,860.976,1160.922,865.021,1160.922,870.009z"/>
				</g>
			</g>
			<g>
				<g>
					<rect x="948.015" y="503.826" fill="#D9D9D9" width="228.383" height="342.774"/>
					<path fill="#51AD99" d="M1168.66,719.103c-1.656,0-3-1.344-3-3V512.77c0-1.657,1.344-3,3-3s3,1.343,3,3v203.333
						C1171.66,717.759,1170.316,719.103,1168.66,719.103z"/>
					<path fill="#51AD99" d="M955.752,718.353c-1.657,0-3-1.344-3-3V512.02c0-1.657,1.343-3,3-3s3,1.343,3,3v203.333
						C958.752,717.009,957.41,718.353,955.752,718.353z"/>
				</g>
				<g>
					<polyline fill="#51AD99" points="963.49,768.964 948.015,768.964 948.015,810.468 963.49,810.468 963.49,768.964 					"/>
					<polyline fill="#269880" points="1176.398,768.964 1160.922,768.964 1160.922,810.468 1176.398,810.468 1176.398,768.964 					
						"/>
				</g>
			</g>
			<g>
				<g>
					<rect x="963.49" y="520.672" fill="#9F9F9F" width="197.432" height="305.421"/>
					<polygon fill="#878787" points="1160.922,520.672 963.49,826.093 963.49,520.672 					"/>
				</g>
			</g>
		</g>
		<g>
			<g>
				<g>
					<g>
						<path fill="#269880" d="M615.895,534.101h-37.829c-11.903,0-22.988,7.075-29.411,18.774L472.83,690.972l-92.993,52.938
							l-24.954,103.934h261.013V534.101z"/>
						<polygon fill="#878787" points="369.517,782.712 387.282,782.712 375.268,836.464 357.795,835.636 						"/>
						<path fill="#7DC1B3" d="M387.285,752.706c-1.03,0-2.033-0.531-2.592-1.484c-0.837-1.43-0.356-3.268,1.073-4.104l84.309-49.375
							c1.428-0.838,3.268-0.355,4.104,1.072c0.837,1.43,0.356,3.268-1.073,4.104l-84.309,49.375
							C388.322,752.573,387.799,752.706,387.285,752.706z"/>
					</g>
					<g>
						<path fill="#D4EAE6" d="M554.594,575.778l-67.731,121.6h129.031v-138.96l-37.678,1.701
							C568.631,560.552,559.823,566.392,554.594,575.778z"/>
						<path fill="#FFFFFF" d="M536.602,632.009c-0.952,0-1.888-0.451-2.47-1.293c-0.943-1.363-0.603-3.232,0.76-4.174l68.406-47.318
							c1.365-0.945,3.232-0.602,4.174,0.76c0.943,1.363,0.603,3.23-0.76,4.174l-68.406,47.318
							C537.785,631.837,537.19,632.009,536.602,632.009z"/>
						<path fill="#FFFFFF" d="M521.25,670.104c-0.952,0-1.888-0.451-2.47-1.293c-0.943-1.363-0.603-3.232,0.76-4.174l68.406-47.318
							c1.366-0.943,3.233-0.602,4.174,0.76c0.943,1.363,0.603,3.23-0.76,4.174l-68.406,47.318
							C522.432,669.933,521.837,670.104,521.25,670.104z"/>
						<path fill="#FFFFFF" d="M552.655,673.731c-0.952,0-1.888-0.451-2.47-1.293c-0.943-1.363-0.603-3.232,0.76-4.174l50.35-34.828
							c1.366-0.947,3.231-0.602,4.174,0.76c0.943,1.363,0.603,3.232-0.76,4.174l-50.35,34.828
							C553.837,673.56,553.243,673.731,552.655,673.731z"/>
					</g>
				</g>
				<g>
					<g>
						<g>
							<rect x="615.894" y="503.826" fill="#C6C6C6" width="332.121" height="342.774"/>
							<path fill="#51AD99" d="M628.744,693.972c-1.657,0-3-1.344-3-3V514.141c0-1.646,1.327-2.985,2.974-3l153.211-1.371
								c0.009,0,0.018,0,0.027,0c1.644,0,2.984,1.325,2.999,2.973c0.015,1.657-1.316,3.013-2.974,3.027l-150.237,1.345v173.857
								C631.744,692.628,630.401,693.972,628.744,693.972z"/>
						</g>
						<polyline fill="#A8D6CC" points="948.015,768.964 932.539,768.964 932.539,810.468 948.015,810.468 948.015,768.964 						"/>
					</g>
				</g>
			</g>
			<g>
				<g>
					<rect x="344.007" y="846.601" fill="#878787" width="597.524" height="58.596"/>
					<path fill="#51AD99" d="M778.836,859.21H539.374c-1.657,0-3-1.344-3-3s1.343-3,3-3h239.463c1.657,0,3,1.344,3,3
						S780.494,859.21,778.836,859.21z"/>
					<path fill="#51AD99" d="M410.324,856.259h-62.406c-1.657,0-3-1.344-3-3s1.343-3,3-3h62.406c1.657,0,3,1.344,3,3
						S411.981,856.259,410.324,856.259z"/>
				</g>
				<g>
					<path fill="#444444" d="M928.357,911.06c0,0-3.776-67.719-61.755-77.393s-89.561,39.664-90.975,77.393H928.357z"/>
					<g>
						<g>
							<circle fill="#656565" cx="850.649" cy="911.524" r="70.044"/>
							<circle fill="#878787" cx="850.185" cy="913.771" r="37.248"/>
						</g>
					</g>
				</g>
				<g>
					<path fill="#444444" d="M547.956,911.06c0,0-3.777-67.719-61.756-77.393s-89.561,39.664-90.975,77.393H547.956z"/>
					<g>
						<circle fill="#656565" cx="469.343" cy="908.813" r="70.044"/>
						<circle fill="#878787" cx="468.879" cy="911.06" r="37.249"/>
					</g>
				</g>
			</g>
		</g>
	</g>
</g>
<g>
	<path fill="#269880" d="M761.313,708.292c-6.522-2.365-12.362-5.842-17.424-10.564c-8.073-7.531-12.899-16.816-14.872-27.65
		c-0.78-4.281-0.966-8.594-0.729-12.908c0.435-7.883,2.89-15.213,6.445-22.207c4.499-8.85,10.054-17.029,15.948-24.982
		c5.892-7.947,11.986-15.746,17.814-23.738c3.234-4.434,6.208-9.07,9.103-13.736c1.637-2.641,2.833-5.541,3.053-8.865
		c0.755,1.354,1.581,2.674,2.254,4.068c2.581,5.346,3.77,11.023,3.517,16.938c-0.238,5.605-1.589,10.986-3.969,16.082
		c-1.683,3.605-2.987,7.34-3.346,11.307c-0.48,5.316-0.011,10.486,3.582,14.832c2.648,3.203,6.23,4.834,10.217,5.541
		c5.153,0.916,10.09,0.201,14.589-2.611c4.903-3.064,7.556-7.654,8.722-13.207c0.087-0.414,0.191-0.824,0.321-1.381
		c0.242,0.326,0.419,0.518,0.54,0.736c4.059,7.369,8.22,14.686,12.13,22.133c2.783,5.301,4.644,10.977,5.542,16.922
		c0.955,6.318,0.468,12.561-1.349,18.672c-5.315,17.881-17.023,29.699-34.4,36.102c-0.094,0.033-0.191,0.064-0.289,0.072
		c-0.055,0.004-0.114-0.043,0.056,0.027c1.704-2,3.632-3.928,5.167-6.129c3.745-5.371,5.205-11.434,4.592-17.928
		c-0.548-5.809-3.147-10.736-6.985-15.061c-2.221-2.504-4.845-4.523-7.557-6.453c-7.222-5.139-13.52-11.211-18.492-18.586
		c-3.384-5.018-5.955-10.402-7.213-16.361c-0.061-0.285-0.192-0.553-0.346-0.982c-0.368,0.34-0.672,0.582-0.929,0.865
		c-7.635,8.451-13.737,17.91-18.562,28.215c-1.818,3.881-3.117,7.922-3.61,12.172c-0.895,7.711,0.144,15.16,3.397,22.252
		c2.962,6.459,7.182,11.922,12.884,16.203C761.191,708.136,761.248,708.22,761.313,708.292z"/>
	<path fill="#269880" d="M774.979,763.995c0,7.143,0.001,14.285,0,21.428c0,1.35-0.001,1.35-1.395,1.352
		c-1.878,0-3.756-0.029-5.633,0.014c-0.761,0.016-1.076-0.18-1.068-1.008c0.039-3.924-0.013-7.848,0.043-11.77
		c0.018-1.299,0.273-2.592,0.389-3.889c0.02-0.225-0.118-0.465-0.184-0.697c-0.226,0.092-0.55,0.117-0.661,0.285
		c-3.648,5.512-12.626,5.482-17.621,2.043c-4.496-3.094-6.704-7.441-7.114-12.775c-0.354-4.607,0.481-8.926,3.244-12.77
		c4.092-5.697,12.329-7.838,18.06-4.531c1.216,0.703,2.175,1.85,3.265,2.775c0.241,0.207,0.533,0.352,0.803,0.523
		c0.121-0.316,0.244-0.635,0.359-0.955c0.021-0.061,0.003-0.133,0.004-0.201c0.031-2.59,0.031-2.59,2.579-2.59
		c1.274,0,2.551,0.049,3.822-0.016c0.895-0.045,1.141,0.275,1.13,1.152c-0.046,3.621-0.021,7.244-0.021,10.865
		C774.979,756.819,774.979,760.407,774.979,763.995z M749.606,757.12c0.068,0.563,0.151,1.125,0.203,1.689
		c0.582,6.303,7.577,9.934,13.054,6.773c5.467-3.154,6.223-11.758,1.385-15.832c-1.846-1.555-4.005-2.432-6.395-2.129
		C752.744,748.269,749.644,751.954,749.606,757.12z"/>
	<path fill="#269880" d="M702.243,744.634c0-0.721,0.024-1.441-0.008-2.16c-0.029-0.66,0.256-0.887,0.896-0.879
		c1.879,0.023,3.759,0.049,5.636-0.01c0.908-0.027,1.21,0.234,1.206,1.186c-0.034,9.225-0.021,18.449-0.021,27.676
		c0,2.637,0,2.639-2.607,2.637c-1.408,0-2.818-0.021-4.227,0.01c-0.654,0.016-0.912-0.232-0.883-0.881
		c0.031-0.715,0.007-1.432,0.007-2.379c-0.479,0.293-0.722,0.395-0.905,0.561c-6.609,5.977-16.734,4.266-21.74-3.898
		c-2.029-3.311-2.643-6.934-2.343-10.787c0.29-3.729,1.485-7.047,3.898-9.92c4.96-5.904,13.57-6.756,19.572-1.926
		c0.384,0.309,0.787,0.594,1.181,0.889C702.018,744.712,702.13,744.673,702.243,744.634z M702.485,757.417
		c0-0.357,0.003-0.625,0-0.893c-0.041-3.461-1.603-6.117-4.61-7.689c-3.047-1.592-6.212-1.486-9.132,0.486
		c-4.53,3.061-5.191,10.352-1.496,14.631c3.256,3.771,9.229,3.693,12.351,0.691C701.67,762.649,702.655,760.214,702.485,757.417z"/>
	<path fill="#269880" d="M879.853,744.972c0-1.105-0.061-1.881,0.033-2.635c0.033-0.268,0.438-0.691,0.684-0.699
		c2.078-0.055,4.158-0.055,6.236,0c0.247,0.006,0.535,0.414,0.706,0.697c0.104,0.172,0.021,0.457,0.021,0.691
		c0,9.559,0,19.115,0,28.672c0,1.398-0.002,1.393-1.443,1.387c-1.743-0.006-3.488-0.039-5.23,0.016
		c-0.814,0.023-1.095-0.268-1.015-1.051c0.063-0.619,0.063-1.246,0.103-2.143c-0.538,0.307-0.965,0.459-1.278,0.74
		c-5.785,5.184-15.126,4.176-20.274-2.486c-2.361-3.057-3.489-6.498-3.556-10.346c-0.095-5.49,1.562-10.225,5.838-13.844
		c5.102-4.318,12.639-4.324,17.77-0.063C878.82,744.222,879.222,744.497,879.853,744.972z M871.252,747.915
		c-1.975-0.213-3.777,0.479-5.359,1.797c-3.059,2.547-4.168,6.84-2.859,10.986c2.01,6.371,9.898,8.289,14.574,3.543
		c2.096-2.129,2.757-4.768,2.621-7.643C879.95,750.663,875.236,747.513,871.252,747.915z"/>
	<path fill="#269880" d="M850.385,765.735c-2.305,4.02-5.44,6.766-9.832,7.783c-6.814,1.582-12.969,0.41-17.739-5.07
		c-3.353-3.85-4.421-8.475-3.792-13.5c0.674-5.375,3.265-9.57,7.853-12.48c2.311-1.463,4.858-2.162,7.598-2.297
		c3.869-0.189,7.445,0.607,10.597,2.928c3.439,2.535,5.182,6.076,5.794,10.205c0.215,1.445,0.175,2.934,0.206,4.402
		c0.019,0.9-0.34,1.32-1.386,1.313c-7.209-0.051-14.419-0.027-21.628-0.027c-1.407,0.002-1.439,0.049-1.104,1.422
		c0.927,3.775,3.997,6.297,7.901,6.613c3.599,0.291,6.474-0.943,8.689-3.787c0.179-0.23,0.658-0.494,0.845-0.41
		C846.358,763.737,848.297,764.71,850.385,765.735z M843.3,753.257c-0.156-3.965-4.036-6.76-8.908-6.555
		c-3.269,0.137-7.223,3.783-7.071,6.555C832.625,753.257,837.931,753.257,843.3,753.257z"/>
	<path fill="#269880" d="M804.7,769.052c-0.325,0.313-0.686,0.596-0.97,0.941c-2.229,2.711-5.137,3.982-8.598,4.115
		c-2.487,0.094-4.887-0.209-7.056-1.547c-2.824-1.742-4.217-4.436-4.834-7.564c-0.283-1.436-0.413-2.92-0.424-4.385
		c-0.046-6.07-0.02-12.143-0.019-18.215c0-1.111,0.303-1.387,1.426-1.348c1.806,0.066,3.613,0.178,5.419,0.156
		c0.947-0.012,1.269,0.236,1.261,1.232c-0.044,5.971-0.043,11.943,0.002,17.914c0.007,0.916,0.185,1.881,0.514,2.734
		c1.977,5.143,8.499,4.494,11.149,0.844c1.259-1.734,1.945-3.678,1.962-5.805c0.04-5.199,0.042-10.4-0.002-15.6
		c-0.008-0.986,0.207-1.369,1.27-1.322c1.942,0.086,3.891,0.049,5.836,0.014c0.718-0.012,1.01,0.188,1.008,0.963
		c-0.021,9.963-0.021,19.926,0.003,29.889c0.002,0.809-0.258,1.049-1.043,1.029c-1.811-0.047-3.624-0.057-5.434,0.002
		c-0.875,0.029-1.094-0.318-1.068-1.117c0.03-0.945-0.055-1.895-0.09-2.842C804.908,769.112,804.804,769.083,804.7,769.052z"/>
	<path fill="#269880" d="M726.188,745.474c0.255-0.254,0.551-0.479,0.758-0.766c2.616-3.648,6.235-4.896,10.554-4.336
		c2.038,0.264,2.048,0.342,2.076,2.379c0.027,1.971,0.006,3.943,0.006,5.922c-1.342-0.279-2.565-0.588-3.808-0.783
		c-4.427-0.697-8.044,1.713-9.063,6.117c-0.306,1.322-0.413,2.715-0.428,4.078c-0.051,4.629-0.042,9.26-0.001,13.889
		c0.009,0.9-0.278,1.154-1.15,1.129c-1.944-0.059-3.892-0.039-5.837-0.008c-0.679,0.01-0.958-0.197-0.957-0.914
		c0.015-10.029,0.015-20.059,0.002-30.09c-0.001-0.658,0.251-0.881,0.896-0.871c1.911,0.027,3.824,0.033,5.735-0.002
		c0.733-0.014,0.923,0.297,0.897,0.967c-0.04,1.031-0.011,2.064-0.011,3.098C725.967,745.347,726.078,745.411,726.188,745.474z"/>
	<path fill="#269880" d="M784.467,712.265c-2.243,0-4.437,0.035-6.626-0.037c-0.327-0.01-0.692-0.482-0.947-0.813
		c-4.362-5.652-6.995-12.064-8.379-19.035c-1.201-6.049-1.34-12.164-1.187-18.295c0.051-2.029,0.277-4.055,0.425-6.09
		c0.196,2.227,0.366,4.455,0.593,6.68c1.227,12.01,4.274,23.367,12.008,33.008c1.005,1.254,2.137,2.404,3.211,3.6
		C783.871,711.622,784.183,711.956,784.467,712.265z"/>
</g>
<g>
	<path fill="#488577" d="M982.41,825.925h39.021c2.846,0,5.154-2.307,5.154-5.152v-6.508h-49.33v6.508
		C977.256,823.618,979.563,825.925,982.41,825.925z"/>
	<rect x="978.088" y="773.495" fill="#15866D" width="47.664" height="40.77"/>
	<g>
		<polygon fill="#488577" points="977.256,773.495 1026.586,773.495 1024.629,761.833 977.846,761.833 		"/>
		<path fill="#488577" d="M996.309,750.542h23.324l0,0c2.76,0,4.996,2.238,4.996,4.998v0.232v6.061h-4.996v-5.426
			c0-0.35-0.285-0.635-0.637-0.635h-22.051c-0.352,0-0.637,0.285-0.637,0.635v5.426h-4.998v-6.061v-0.232
			C991.311,752.78,993.549,750.542,996.309,750.542L996.309,750.542z"/>
		<polygon fill="#488577" points="991.311,761.833 977.846,761.833 978.168,758.179 990.072,758.179 		"/>
		<rect x="978.697" y="755.94" fill="#15866D" width="10.846" height="2.238"/>
		<rect x="977.857" y="753.667" fill="#488577" width="12.523" height="2.273"/>
		<path fill="#3C3C3B" d="M978.168,753.667h11.904v-5.109c0-0.619-0.502-1.121-1.121-1.121h-9.664c-0.619,0-1.119,0.502-1.119,1.121
			V753.667z"/>
	</g>
	<g>
		<path fill="#FFFFFF" d="M999.738,797.306c-0.674-0.246-1.279-0.605-1.803-1.094c-0.836-0.781-1.336-1.742-1.541-2.865
			c-0.08-0.441-0.1-0.889-0.074-1.336c0.045-0.816,0.299-1.574,0.666-2.299c0.467-0.918,1.041-1.764,1.652-2.588
			c0.609-0.822,1.24-1.631,1.844-2.457c0.336-0.461,0.645-0.939,0.943-1.424c0.17-0.273,0.293-0.574,0.316-0.918
			c0.078,0.141,0.164,0.277,0.232,0.422c0.268,0.553,0.391,1.141,0.365,1.754c-0.025,0.58-0.164,1.137-0.41,1.666
			c-0.176,0.373-0.311,0.76-0.348,1.17c-0.049,0.551,0,1.086,0.371,1.535c0.273,0.332,0.645,0.502,1.059,0.574
			c0.533,0.096,1.045,0.021,1.51-0.27c0.508-0.318,0.783-0.793,0.904-1.367c0.008-0.043,0.02-0.086,0.033-0.145
			c0.023,0.035,0.043,0.055,0.055,0.076c0.42,0.764,0.852,1.521,1.256,2.293c0.289,0.549,0.482,1.137,0.574,1.752
			c0.1,0.654,0.049,1.301-0.139,1.934c-0.551,1.852-1.764,3.076-3.563,3.738c-0.01,0.004-0.02,0.008-0.031,0.008
			c-0.004,0-0.012-0.004,0.006,0.002c0.178-0.207,0.377-0.406,0.535-0.635c0.389-0.555,0.539-1.184,0.477-1.855
			c-0.057-0.602-0.326-1.111-0.723-1.561c-0.23-0.258-0.502-0.467-0.783-0.668c-0.748-0.531-1.4-1.16-1.916-1.924
			c-0.35-0.52-0.615-1.078-0.746-1.695c-0.006-0.029-0.02-0.057-0.035-0.102c-0.039,0.035-0.07,0.061-0.098,0.09
			c-0.789,0.875-1.422,1.855-1.922,2.922c-0.188,0.402-0.322,0.82-0.373,1.262c-0.094,0.797,0.014,1.568,0.352,2.303
			c0.307,0.67,0.744,1.234,1.334,1.678C999.727,797.288,999.732,797.298,999.738,797.306z"/>
		<path fill="#FFFFFF" d="M1001.154,803.073c0,0.74,0,1.48,0,2.219c0,0.141,0,0.141-0.145,0.141c-0.193,0-0.389-0.004-0.584,0.002
			c-0.078,0-0.111-0.02-0.109-0.105c0.004-0.406-0.002-0.813,0.004-1.219c0.002-0.135,0.029-0.268,0.041-0.402
			c0.002-0.023-0.012-0.049-0.02-0.072c-0.023,0.01-0.057,0.012-0.068,0.029c-0.377,0.57-1.307,0.568-1.824,0.211
			c-0.467-0.32-0.695-0.77-0.738-1.322c-0.035-0.477,0.051-0.924,0.336-1.322c0.426-0.59,1.277-0.813,1.871-0.469
			c0.125,0.072,0.225,0.191,0.338,0.287c0.025,0.021,0.055,0.037,0.084,0.055c0.012-0.033,0.025-0.066,0.037-0.1
			c0.002-0.006,0-0.014,0-0.021c0.004-0.268,0.004-0.268,0.268-0.268c0.131,0,0.264,0.006,0.395-0.002
			c0.094-0.004,0.119,0.029,0.117,0.119c-0.004,0.375-0.002,0.75-0.002,1.125C1001.154,802.331,1001.154,802.702,1001.154,803.073z
			 M998.527,802.362c0.006,0.057,0.016,0.115,0.021,0.174c0.059,0.652,0.783,1.029,1.352,0.701c0.566-0.326,0.645-1.217,0.143-1.639
			c-0.191-0.162-0.414-0.252-0.662-0.221C998.852,801.444,998.531,801.827,998.527,802.362z"/>
		<path fill="#FFFFFF" d="M993.623,801.069c0-0.076,0.002-0.15-0.002-0.225c-0.002-0.068,0.027-0.092,0.094-0.092
			c0.193,0.004,0.389,0.006,0.582,0c0.096-0.004,0.127,0.023,0.125,0.123c-0.002,0.955-0.002,1.91-0.002,2.865
			c0,0.273,0,0.273-0.27,0.273c-0.146,0-0.291-0.002-0.438,0c-0.068,0.002-0.094-0.023-0.092-0.09c0.004-0.074,0-0.148,0-0.246
			c-0.049,0.029-0.074,0.041-0.092,0.057c-0.686,0.619-1.734,0.443-2.252-0.402c-0.211-0.344-0.273-0.719-0.242-1.117
			c0.029-0.387,0.152-0.73,0.402-1.027c0.514-0.611,1.406-0.699,2.027-0.199c0.039,0.031,0.082,0.061,0.123,0.092
			C993.6,801.077,993.611,801.073,993.623,801.069z M993.646,802.392c0-0.037,0.002-0.064,0-0.092
			c-0.004-0.357-0.166-0.633-0.477-0.797c-0.314-0.164-0.643-0.152-0.945,0.051c-0.469,0.316-0.537,1.072-0.156,1.516
			c0.338,0.391,0.957,0.383,1.279,0.07C993.563,802.935,993.664,802.683,993.646,802.392z"/>
		<path fill="#FFFFFF" d="M1012.016,801.103c0-0.113-0.008-0.193,0.002-0.271c0.004-0.027,0.047-0.072,0.072-0.072
			c0.215-0.006,0.43-0.006,0.645,0c0.025,0,0.057,0.043,0.074,0.072c0.01,0.018,0.002,0.047,0.002,0.07c0,0.99,0,1.98,0,2.971
			c0,0.145,0,0.143-0.15,0.143c-0.18,0-0.361-0.004-0.541,0.002c-0.084,0.002-0.113-0.027-0.105-0.109
			c0.008-0.064,0.006-0.129,0.012-0.221c-0.057,0.031-0.102,0.047-0.133,0.076c-0.6,0.537-1.566,0.432-2.1-0.258
			c-0.244-0.316-0.361-0.674-0.369-1.072c-0.01-0.568,0.162-1.059,0.605-1.434c0.527-0.447,1.309-0.447,1.84-0.006
			C1011.908,801.026,1011.949,801.054,1012.016,801.103z M1011.125,801.409c-0.205-0.023-0.393,0.049-0.557,0.186
			c-0.316,0.264-0.432,0.707-0.295,1.137c0.207,0.66,1.025,0.859,1.51,0.367c0.217-0.221,0.285-0.494,0.271-0.791
			C1012.025,801.692,1011.537,801.366,1011.125,801.409z"/>
		<path fill="#FFFFFF" d="M1008.963,803.253c-0.238,0.416-0.563,0.701-1.018,0.807c-0.705,0.164-1.344,0.043-1.838-0.525
			c-0.346-0.398-0.457-0.877-0.393-1.398c0.07-0.557,0.338-0.99,0.814-1.291c0.238-0.152,0.502-0.225,0.787-0.238
			c0.4-0.02,0.77,0.063,1.096,0.303c0.357,0.262,0.537,0.629,0.602,1.057c0.021,0.15,0.018,0.305,0.02,0.457
			c0.002,0.092-0.035,0.137-0.143,0.135c-0.746-0.006-1.492-0.002-2.24-0.002c-0.145,0-0.148,0.004-0.113,0.146
			c0.096,0.391,0.414,0.652,0.818,0.686c0.371,0.029,0.67-0.098,0.898-0.393c0.02-0.023,0.068-0.051,0.088-0.043
			C1008.547,803.046,1008.746,803.147,1008.963,803.253z M1008.23,801.962c-0.018-0.41-0.418-0.701-0.924-0.68
			c-0.338,0.014-0.748,0.393-0.732,0.68C1007.125,801.962,1007.674,801.962,1008.23,801.962z"/>
		<path fill="#FFFFFF" d="M1004.232,803.597c-0.033,0.033-0.07,0.063-0.1,0.098c-0.232,0.281-0.533,0.412-0.891,0.426
			c-0.258,0.01-0.506-0.021-0.73-0.16c-0.293-0.18-0.438-0.459-0.502-0.783c-0.029-0.148-0.043-0.303-0.043-0.453
			c-0.006-0.629-0.002-1.258-0.002-1.887c0-0.115,0.031-0.145,0.146-0.139c0.188,0.006,0.375,0.018,0.563,0.016
			c0.098-0.002,0.131,0.023,0.131,0.127c-0.006,0.619-0.006,1.236,0,1.855c0,0.096,0.018,0.195,0.053,0.283
			c0.205,0.533,0.879,0.465,1.154,0.088c0.131-0.18,0.201-0.381,0.203-0.602c0.004-0.539,0.004-1.076,0-1.615
			c0-0.102,0.021-0.143,0.131-0.137c0.201,0.008,0.404,0.004,0.605,0c0.074,0,0.104,0.02,0.104,0.102
			c-0.002,1.031-0.002,2.063,0,3.094c0,0.084-0.025,0.109-0.107,0.107c-0.188-0.006-0.375-0.006-0.563,0
			c-0.09,0.002-0.113-0.033-0.111-0.115c0.004-0.098-0.006-0.197-0.008-0.295C1004.254,803.603,1004.242,803.601,1004.232,803.597z"
			/>
		<path fill="#FFFFFF" d="M996.102,801.155c0.027-0.025,0.057-0.049,0.078-0.08c0.271-0.377,0.646-0.506,1.094-0.447
			c0.211,0.027,0.213,0.035,0.215,0.246c0.002,0.203,0,0.408,0,0.613c-0.139-0.029-0.266-0.063-0.395-0.082
			c-0.457-0.072-0.832,0.178-0.938,0.633c-0.031,0.139-0.043,0.283-0.045,0.424c-0.006,0.479-0.004,0.959,0,1.438
			c0.002,0.094-0.029,0.119-0.119,0.117c-0.201-0.006-0.402-0.004-0.604,0c-0.07,0-0.1-0.021-0.1-0.096
			c0.002-1.039,0.002-2.076,0-3.115c0-0.068,0.025-0.092,0.094-0.09c0.197,0.002,0.395,0.002,0.594-0.002
			c0.074,0,0.096,0.031,0.092,0.102c-0.004,0.105,0,0.213,0,0.32C996.078,801.142,996.09,801.149,996.102,801.155z"/>
		<path fill="#FFFFFF" d="M1002.137,797.716c-0.232,0-0.459,0.004-0.686-0.004c-0.033,0-0.072-0.049-0.098-0.084
			c-0.453-0.584-0.725-1.248-0.869-1.971c-0.123-0.627-0.139-1.26-0.123-1.895c0.006-0.211,0.029-0.42,0.045-0.631
			c0.02,0.23,0.037,0.461,0.061,0.691c0.127,1.244,0.443,2.42,1.244,3.418c0.104,0.131,0.221,0.25,0.332,0.373
			C1002.076,797.649,1002.107,797.685,1002.137,797.716z"/>
	</g>
</g>
<g>
	<path fill="#488577" d="M1042.252,825.925h39.021c2.846,0,5.154-2.307,5.154-5.152v-6.508h-49.33v6.508
		C1037.098,823.618,1039.404,825.925,1042.252,825.925z"/>
	<rect x="1037.93" y="773.495" fill="#15866D" width="47.664" height="40.77"/>
	<g>
		<polygon fill="#488577" points="1037.098,773.495 1086.428,773.495 1084.471,761.833 1037.688,761.833 		"/>
		<path fill="#488577" d="M1056.15,750.542h23.324l0,0c2.76,0,4.996,2.238,4.996,4.998v0.232v6.061h-4.996v-5.426
			c0-0.35-0.285-0.635-0.637-0.635h-22.051c-0.352,0-0.637,0.285-0.637,0.635v5.426h-4.998v-6.061v-0.232
			C1051.152,752.78,1053.391,750.542,1056.15,750.542L1056.15,750.542z"/>
		<polygon fill="#488577" points="1051.152,761.833 1037.688,761.833 1038.01,758.179 1049.914,758.179 		"/>
		<rect x="1038.539" y="755.94" fill="#15866D" width="10.846" height="2.238"/>
		<rect x="1037.699" y="753.667" fill="#488577" width="12.523" height="2.273"/>
		<path fill="#3C3C3B" d="M1038.01,753.667h11.904v-5.109c0-0.619-0.502-1.121-1.121-1.121h-9.664c-0.617,0-1.119,0.502-1.119,1.121
			V753.667z"/>
	</g>
	<g>
		<path fill="#FFFFFF" d="M1059.582,797.306c-0.676-0.246-1.281-0.605-1.805-1.094c-0.836-0.781-1.336-1.742-1.541-2.865
			c-0.08-0.441-0.1-0.889-0.074-1.336c0.045-0.816,0.299-1.574,0.666-2.299c0.467-0.918,1.041-1.764,1.652-2.588
			c0.609-0.822,1.24-1.631,1.844-2.457c0.336-0.461,0.645-0.939,0.943-1.424c0.17-0.273,0.293-0.574,0.316-0.918
			c0.078,0.141,0.164,0.277,0.232,0.422c0.268,0.553,0.391,1.141,0.365,1.754c-0.025,0.58-0.164,1.137-0.412,1.666
			c-0.174,0.373-0.309,0.76-0.346,1.17c-0.049,0.551-0.002,1.086,0.371,1.535c0.273,0.332,0.645,0.502,1.059,0.574
			c0.533,0.096,1.045,0.021,1.51-0.27c0.508-0.318,0.783-0.793,0.904-1.367c0.008-0.043,0.02-0.086,0.033-0.145
			c0.023,0.035,0.043,0.055,0.055,0.076c0.42,0.764,0.852,1.521,1.256,2.293c0.289,0.549,0.482,1.137,0.574,1.752
			c0.1,0.654,0.049,1.301-0.139,1.934c-0.551,1.852-1.764,3.076-3.563,3.738c-0.01,0.004-0.02,0.008-0.031,0.008
			c-0.004,0-0.012-0.004,0.006,0.002c0.178-0.207,0.377-0.406,0.535-0.635c0.389-0.555,0.539-1.184,0.477-1.855
			c-0.057-0.602-0.326-1.111-0.725-1.561c-0.229-0.258-0.5-0.467-0.781-0.668c-0.748-0.531-1.4-1.16-1.916-1.924
			c-0.35-0.52-0.615-1.078-0.746-1.695c-0.006-0.029-0.02-0.057-0.035-0.102c-0.039,0.035-0.07,0.061-0.098,0.09
			c-0.791,0.875-1.422,1.855-1.922,2.922c-0.188,0.402-0.322,0.82-0.373,1.262c-0.094,0.797,0.014,1.568,0.352,2.303
			c0.307,0.67,0.744,1.234,1.334,1.678C1059.568,797.288,1059.574,797.298,1059.582,797.306z"/>
		<path fill="#FFFFFF" d="M1060.996,803.073c0,0.74,0,1.48,0,2.219c0,0.141,0,0.141-0.145,0.141c-0.193,0-0.389-0.004-0.584,0.002
			c-0.078,0-0.111-0.02-0.109-0.105c0.004-0.406-0.002-0.813,0.004-1.219c0.002-0.135,0.029-0.268,0.041-0.402
			c0.002-0.023-0.014-0.049-0.02-0.072c-0.023,0.01-0.057,0.012-0.068,0.029c-0.379,0.57-1.307,0.568-1.824,0.211
			c-0.467-0.32-0.695-0.77-0.738-1.322c-0.035-0.477,0.051-0.924,0.338-1.322c0.422-0.59,1.275-0.813,1.869-0.469
			c0.125,0.072,0.225,0.191,0.338,0.287c0.025,0.021,0.055,0.037,0.084,0.055c0.012-0.033,0.025-0.066,0.037-0.1
			c0.002-0.006,0-0.014,0-0.021c0.004-0.268,0.004-0.268,0.268-0.268c0.131,0,0.264,0.006,0.395-0.002
			c0.094-0.004,0.119,0.029,0.117,0.119c-0.004,0.375-0.002,0.75-0.002,1.125C1060.996,802.331,1060.996,802.702,1060.996,803.073z
			 M1058.369,802.362c0.006,0.057,0.016,0.115,0.021,0.174c0.059,0.652,0.783,1.029,1.352,0.701
			c0.566-0.326,0.645-1.217,0.143-1.639c-0.191-0.162-0.414-0.252-0.662-0.221C1058.693,801.444,1058.373,801.827,1058.369,802.362z
			"/>
		<path fill="#FFFFFF" d="M1053.465,801.069c0-0.076,0.002-0.15-0.002-0.225c-0.002-0.068,0.027-0.092,0.094-0.092
			c0.193,0.004,0.389,0.006,0.582,0c0.096-0.004,0.127,0.023,0.125,0.123c-0.002,0.955-0.002,1.91-0.002,2.865
			c0,0.273,0,0.273-0.27,0.273c-0.146,0-0.291-0.002-0.438,0c-0.068,0.002-0.094-0.023-0.092-0.09
			c0.004-0.074,0.002-0.148,0.002-0.246c-0.051,0.029-0.076,0.041-0.096,0.057c-0.684,0.619-1.732,0.443-2.25-0.402
			c-0.211-0.344-0.273-0.719-0.242-1.117c0.029-0.387,0.152-0.73,0.402-1.027c0.514-0.611,1.406-0.699,2.027-0.199
			c0.039,0.031,0.082,0.061,0.123,0.092C1053.441,801.077,1053.453,801.073,1053.465,801.069z M1053.488,802.392
			c0-0.037,0.002-0.064,0-0.092c-0.004-0.357-0.166-0.633-0.477-0.797c-0.316-0.164-0.643-0.152-0.945,0.051
			c-0.469,0.316-0.537,1.072-0.156,1.516c0.338,0.391,0.957,0.383,1.279,0.07C1053.404,802.935,1053.506,802.683,1053.488,802.392z"
			/>
		<path fill="#FFFFFF" d="M1071.857,801.103c0-0.113-0.008-0.193,0.002-0.271c0.004-0.027,0.047-0.072,0.072-0.072
			c0.215-0.006,0.43-0.006,0.645,0c0.025,0,0.057,0.043,0.074,0.072c0.01,0.018,0.002,0.047,0.002,0.07c0,0.99,0,1.98,0,2.971
			c0,0.145,0,0.143-0.15,0.143c-0.18,0-0.361-0.004-0.541,0.002c-0.084,0.002-0.113-0.027-0.105-0.109
			c0.006-0.064,0.006-0.129,0.012-0.221c-0.057,0.031-0.102,0.047-0.133,0.076c-0.6,0.537-1.566,0.432-2.1-0.258
			c-0.244-0.316-0.361-0.674-0.369-1.072c-0.01-0.568,0.162-1.059,0.605-1.434c0.527-0.447,1.309-0.447,1.84-0.006
			C1071.75,801.026,1071.791,801.054,1071.857,801.103z M1070.967,801.409c-0.205-0.023-0.393,0.049-0.557,0.186
			c-0.316,0.264-0.43,0.707-0.295,1.137c0.207,0.66,1.025,0.859,1.51,0.367c0.217-0.221,0.285-0.494,0.271-0.791
			C1071.867,801.692,1071.379,801.366,1070.967,801.409z"/>
		<path fill="#FFFFFF" d="M1068.805,803.253c-0.238,0.416-0.563,0.701-1.018,0.807c-0.705,0.164-1.344,0.043-1.838-0.525
			c-0.346-0.398-0.457-0.877-0.393-1.398c0.07-0.557,0.338-0.99,0.814-1.291c0.238-0.152,0.502-0.225,0.785-0.238
			c0.402-0.02,0.771,0.063,1.098,0.303c0.357,0.262,0.537,0.629,0.602,1.057c0.021,0.15,0.018,0.305,0.02,0.457
			c0.002,0.092-0.035,0.137-0.143,0.135c-0.746-0.006-1.494-0.002-2.24-0.002c-0.145,0-0.148,0.004-0.113,0.146
			c0.096,0.391,0.414,0.652,0.818,0.686c0.371,0.029,0.67-0.098,0.898-0.393c0.02-0.023,0.068-0.051,0.088-0.043
			C1068.389,803.046,1068.59,803.147,1068.805,803.253z M1068.072,801.962c-0.018-0.41-0.418-0.701-0.924-0.68
			c-0.338,0.014-0.748,0.393-0.732,0.68C1066.967,801.962,1067.516,801.962,1068.072,801.962z"/>
		<path fill="#FFFFFF" d="M1064.074,803.597c-0.033,0.033-0.07,0.063-0.1,0.098c-0.232,0.281-0.533,0.412-0.891,0.426
			c-0.258,0.01-0.506-0.021-0.73-0.16c-0.293-0.18-0.438-0.459-0.502-0.783c-0.029-0.148-0.043-0.303-0.043-0.453
			c-0.006-0.629-0.002-1.258-0.002-1.887c0-0.115,0.031-0.145,0.146-0.139c0.188,0.006,0.375,0.018,0.563,0.016
			c0.098-0.002,0.131,0.023,0.131,0.127c-0.006,0.619-0.006,1.236,0,1.855c0,0.096,0.018,0.195,0.053,0.283
			c0.205,0.533,0.879,0.465,1.154,0.088c0.131-0.18,0.201-0.381,0.203-0.602c0.004-0.539,0.004-1.076,0-1.615
			c-0.002-0.102,0.021-0.143,0.131-0.137c0.201,0.008,0.404,0.004,0.605,0c0.074,0,0.104,0.02,0.104,0.102
			c-0.002,1.031-0.002,2.063,0,3.094c0,0.084-0.025,0.109-0.107,0.107c-0.188-0.006-0.375-0.006-0.563,0
			c-0.092,0.002-0.113-0.033-0.111-0.115c0.004-0.098-0.006-0.197-0.01-0.295C1064.096,803.603,1064.084,803.601,1064.074,803.597z"
			/>
		<path fill="#FFFFFF" d="M1055.943,801.155c0.027-0.025,0.057-0.049,0.078-0.08c0.271-0.377,0.646-0.506,1.094-0.447
			c0.211,0.027,0.211,0.035,0.215,0.246c0.002,0.203,0,0.408,0,0.613c-0.139-0.029-0.266-0.063-0.395-0.082
			c-0.457-0.072-0.832,0.178-0.938,0.633c-0.031,0.139-0.043,0.283-0.045,0.424c-0.004,0.479-0.004,0.959,0,1.438
			c0.002,0.094-0.029,0.119-0.119,0.117c-0.201-0.006-0.402-0.004-0.604,0c-0.07,0-0.1-0.021-0.1-0.096
			c0.002-1.039,0.002-2.076,0-3.115c0-0.068,0.025-0.092,0.094-0.09c0.197,0.002,0.395,0.002,0.594-0.002
			c0.074,0,0.096,0.031,0.092,0.102c-0.004,0.105,0,0.213,0,0.32C1055.92,801.142,1055.932,801.149,1055.943,801.155z"/>
		<path fill="#FFFFFF" d="M1061.979,797.716c-0.232,0-0.459,0.004-0.686-0.004c-0.033,0-0.072-0.049-0.098-0.084
			c-0.453-0.584-0.725-1.248-0.869-1.971c-0.123-0.627-0.139-1.26-0.123-1.895c0.006-0.211,0.029-0.42,0.045-0.631
			c0.02,0.23,0.037,0.461,0.061,0.691c0.127,1.244,0.443,2.42,1.244,3.418c0.104,0.131,0.221,0.25,0.332,0.373
			C1061.918,797.649,1061.949,797.685,1061.979,797.716z"/>
	</g>
</g>
<g>
	<path fill="#488577" d="M1102.094,825.925h39.021c2.846,0,5.152-2.307,5.152-5.152v-6.508h-49.328v6.508
		C1096.939,823.618,1099.246,825.925,1102.094,825.925z"/>
	<rect x="1097.771" y="773.495" fill="#15866D" width="47.664" height="40.77"/>
	<g>
		<polygon fill="#488577" points="1096.939,773.495 1146.268,773.495 1144.313,761.833 1097.529,761.833 		"/>
		<path fill="#488577" d="M1115.992,750.542h23.324l0,0c2.76,0,4.996,2.238,4.996,4.998v0.232v6.061h-4.996v-5.426
			c0-0.35-0.285-0.635-0.637-0.635h-22.051c-0.352,0-0.637,0.285-0.637,0.635v5.426h-4.998v-6.061v-0.232
			C1110.994,752.78,1113.232,750.542,1115.992,750.542L1115.992,750.542z"/>
		<polygon fill="#488577" points="1110.994,761.833 1097.529,761.833 1097.852,758.179 1109.756,758.179 		"/>
		<rect x="1098.381" y="755.94" fill="#15866D" width="10.846" height="2.238"/>
		<rect x="1097.541" y="753.667" fill="#488577" width="12.523" height="2.273"/>
		<path fill="#3C3C3B" d="M1097.852,753.667h11.904v-5.109c0-0.619-0.502-1.121-1.121-1.121h-9.664
			c-0.619,0-1.119,0.502-1.119,1.121V753.667z"/>
	</g>
	<g>
		<path fill="#FFFFFF" d="M1119.422,797.306c-0.674-0.246-1.279-0.605-1.803-1.094c-0.836-0.781-1.336-1.742-1.541-2.865
			c-0.08-0.441-0.1-0.889-0.076-1.336c0.045-0.816,0.301-1.574,0.668-2.299c0.467-0.918,1.041-1.764,1.652-2.588
			c0.609-0.822,1.24-1.631,1.844-2.457c0.336-0.461,0.645-0.939,0.943-1.424c0.17-0.273,0.293-0.574,0.316-0.918
			c0.078,0.141,0.164,0.277,0.232,0.422c0.268,0.553,0.391,1.141,0.365,1.754c-0.025,0.58-0.164,1.137-0.412,1.666
			c-0.174,0.373-0.309,0.76-0.346,1.17c-0.049,0.551-0.002,1.086,0.371,1.535c0.273,0.332,0.645,0.502,1.059,0.574
			c0.533,0.096,1.045,0.021,1.51-0.27c0.508-0.318,0.783-0.793,0.904-1.367c0.008-0.043,0.02-0.086,0.033-0.145
			c0.023,0.035,0.043,0.055,0.055,0.076c0.42,0.764,0.852,1.521,1.256,2.293c0.289,0.549,0.482,1.137,0.574,1.752
			c0.1,0.654,0.049,1.301-0.139,1.934c-0.551,1.852-1.764,3.076-3.563,3.738c-0.01,0.004-0.02,0.008-0.031,0.008
			c-0.006,0-0.012-0.004,0.006,0.002c0.178-0.207,0.377-0.406,0.535-0.635c0.389-0.555,0.539-1.184,0.477-1.855
			c-0.057-0.602-0.326-1.111-0.723-1.561c-0.23-0.258-0.502-0.467-0.783-0.668c-0.748-0.531-1.4-1.16-1.916-1.924
			c-0.35-0.52-0.615-1.078-0.746-1.695c-0.006-0.029-0.02-0.057-0.035-0.102c-0.039,0.035-0.07,0.061-0.098,0.09
			c-0.789,0.875-1.422,1.855-1.922,2.922c-0.188,0.402-0.322,0.82-0.373,1.262c-0.094,0.797,0.014,1.568,0.352,2.303
			c0.307,0.67,0.744,1.234,1.334,1.678C1119.41,797.288,1119.416,797.298,1119.422,797.306z"/>
		<path fill="#FFFFFF" d="M1120.838,803.073c0,0.74,0,1.48,0,2.219c0,0.141,0,0.141-0.145,0.141c-0.193,0-0.389-0.004-0.584,0.002
			c-0.078,0-0.111-0.02-0.109-0.105c0.004-0.406-0.002-0.813,0.004-1.219c0.002-0.135,0.029-0.268,0.041-0.402
			c0.002-0.023-0.014-0.049-0.02-0.072c-0.023,0.01-0.057,0.012-0.068,0.029c-0.379,0.57-1.307,0.568-1.824,0.211
			c-0.467-0.32-0.695-0.77-0.738-1.322c-0.035-0.477,0.051-0.924,0.336-1.322c0.424-0.59,1.277-0.813,1.871-0.469
			c0.125,0.072,0.225,0.191,0.338,0.287c0.025,0.021,0.055,0.037,0.084,0.055c0.012-0.033,0.025-0.066,0.037-0.1
			c0.002-0.006,0-0.014,0-0.021c0.002-0.268,0.002-0.268,0.268-0.268c0.131,0,0.264,0.006,0.395-0.002
			c0.094-0.004,0.119,0.029,0.117,0.119c-0.004,0.375-0.002,0.75-0.002,1.125C1120.838,802.331,1120.838,802.702,1120.838,803.073z
			 M1118.211,802.362c0.006,0.057,0.016,0.115,0.021,0.174c0.059,0.652,0.783,1.029,1.352,0.701
			c0.566-0.326,0.645-1.217,0.143-1.639c-0.191-0.162-0.414-0.252-0.662-0.221C1118.535,801.444,1118.215,801.827,1118.211,802.362z
			"/>
		<path fill="#FFFFFF" d="M1113.305,801.069c0-0.076,0.004-0.15,0-0.225c-0.002-0.068,0.027-0.092,0.094-0.092
			c0.193,0.004,0.389,0.006,0.582,0c0.096-0.004,0.127,0.023,0.125,0.123c-0.002,0.955-0.002,1.91-0.002,2.865
			c0,0.273,0,0.273-0.27,0.273c-0.146,0-0.291-0.002-0.438,0c-0.068,0.002-0.094-0.023-0.092-0.09c0.004-0.074,0-0.148,0-0.246
			c-0.049,0.029-0.074,0.041-0.094,0.057c-0.684,0.619-1.732,0.443-2.25-0.402c-0.211-0.344-0.273-0.719-0.242-1.117
			c0.029-0.387,0.152-0.73,0.402-1.027c0.514-0.611,1.406-0.699,2.027-0.199c0.039,0.031,0.082,0.061,0.123,0.092
			C1113.283,801.077,1113.295,801.073,1113.305,801.069z M1113.33,802.392c0-0.037,0.002-0.064,0-0.092
			c-0.004-0.357-0.166-0.633-0.477-0.797c-0.316-0.164-0.643-0.152-0.945,0.051c-0.469,0.316-0.539,1.072-0.156,1.516
			c0.338,0.391,0.957,0.383,1.279,0.07C1113.246,802.935,1113.348,802.683,1113.33,802.392z"/>
		<path fill="#FFFFFF" d="M1131.699,801.103c0-0.113-0.008-0.193,0.002-0.271c0.004-0.027,0.047-0.072,0.072-0.072
			c0.215-0.006,0.43-0.006,0.645,0c0.025,0,0.057,0.043,0.074,0.072c0.01,0.018,0.002,0.047,0.002,0.07c0,0.99,0,1.98,0,2.971
			c0,0.145,0,0.143-0.15,0.143c-0.18,0-0.361-0.004-0.541,0.002c-0.084,0.002-0.113-0.027-0.105-0.109
			c0.006-0.064,0.006-0.129,0.012-0.221c-0.057,0.031-0.102,0.047-0.133,0.076c-0.6,0.537-1.566,0.432-2.1-0.258
			c-0.244-0.316-0.361-0.674-0.369-1.072c-0.01-0.568,0.162-1.059,0.605-1.434c0.527-0.447,1.309-0.447,1.84-0.006
			C1131.592,801.026,1131.633,801.054,1131.699,801.103z M1130.809,801.409c-0.205-0.023-0.393,0.049-0.557,0.186
			c-0.316,0.264-0.432,0.707-0.295,1.137c0.207,0.66,1.025,0.859,1.51,0.367c0.217-0.221,0.285-0.494,0.27-0.791
			C1131.709,801.692,1131.221,801.366,1130.809,801.409z"/>
		<path fill="#FFFFFF" d="M1128.646,803.253c-0.238,0.416-0.563,0.701-1.018,0.807c-0.707,0.164-1.344,0.043-1.838-0.525
			c-0.346-0.398-0.457-0.877-0.393-1.398c0.07-0.557,0.338-0.99,0.814-1.291c0.238-0.152,0.502-0.225,0.785-0.238
			c0.402-0.02,0.771,0.063,1.098,0.303c0.357,0.262,0.537,0.629,0.6,1.057c0.023,0.15,0.02,0.305,0.021,0.457
			c0.002,0.092-0.035,0.137-0.143,0.135c-0.746-0.006-1.494-0.002-2.24-0.002c-0.145,0-0.148,0.004-0.113,0.146
			c0.096,0.391,0.414,0.652,0.818,0.686c0.371,0.029,0.67-0.098,0.898-0.393c0.02-0.023,0.068-0.051,0.088-0.043
			C1128.23,803.046,1128.432,803.147,1128.646,803.253z M1127.914,801.962c-0.018-0.41-0.418-0.701-0.924-0.68
			c-0.338,0.014-0.748,0.393-0.732,0.68C1126.809,801.962,1127.357,801.962,1127.914,801.962z"/>
		<path fill="#FFFFFF" d="M1123.916,803.597c-0.033,0.033-0.07,0.063-0.1,0.098c-0.232,0.281-0.533,0.412-0.891,0.426
			c-0.258,0.01-0.506-0.021-0.73-0.16c-0.293-0.18-0.438-0.459-0.502-0.783c-0.029-0.148-0.043-0.303-0.043-0.453
			c-0.006-0.629-0.002-1.258-0.002-1.887c0-0.115,0.031-0.145,0.146-0.139c0.188,0.006,0.375,0.018,0.563,0.016
			c0.098-0.002,0.131,0.023,0.131,0.127c-0.006,0.619-0.006,1.236,0,1.855c0,0.096,0.018,0.195,0.053,0.283
			c0.205,0.533,0.879,0.465,1.154,0.088c0.131-0.18,0.201-0.381,0.203-0.602c0.004-0.539,0.004-1.076,0-1.615
			c0-0.102,0.021-0.143,0.131-0.137c0.201,0.008,0.404,0.004,0.605,0c0.074,0,0.104,0.02,0.104,0.102
			c-0.002,1.031-0.002,2.063,0,3.094c0,0.084-0.025,0.109-0.107,0.107c-0.188-0.006-0.375-0.006-0.563,0
			c-0.092,0.002-0.113-0.033-0.111-0.115c0.004-0.098-0.006-0.197-0.01-0.295C1123.938,803.603,1123.926,803.601,1123.916,803.597z"
			/>
		<path fill="#FFFFFF" d="M1115.785,801.155c0.027-0.025,0.057-0.049,0.078-0.08c0.271-0.377,0.646-0.506,1.094-0.447
			c0.211,0.027,0.211,0.035,0.215,0.246c0.002,0.203,0,0.408,0,0.613c-0.139-0.029-0.266-0.063-0.395-0.082
			c-0.457-0.072-0.832,0.178-0.938,0.633c-0.031,0.139-0.043,0.283-0.045,0.424c-0.006,0.479-0.004,0.959,0,1.438
			c0.002,0.094-0.029,0.119-0.119,0.117c-0.201-0.006-0.402-0.004-0.604,0c-0.07,0-0.1-0.021-0.1-0.096
			c0.002-1.039,0.002-2.076,0-3.115c0-0.068,0.025-0.092,0.092-0.09c0.199,0.002,0.396,0.002,0.596-0.002
			c0.074,0,0.094,0.031,0.092,0.102c-0.004,0.105,0,0.213,0,0.32C1115.764,801.142,1115.773,801.149,1115.785,801.155z"/>
		<path fill="#FFFFFF" d="M1121.82,797.716c-0.232,0-0.459,0.004-0.686-0.004c-0.033,0-0.072-0.049-0.098-0.084
			c-0.453-0.584-0.725-1.248-0.869-1.971c-0.123-0.627-0.139-1.26-0.123-1.895c0.006-0.211,0.029-0.42,0.045-0.631
			c0.02,0.23,0.037,0.461,0.061,0.691c0.127,1.244,0.443,2.42,1.244,3.418c0.104,0.131,0.221,0.25,0.332,0.373
			C1121.76,797.649,1121.791,797.685,1121.82,797.716z"/>
	</g>
</g>
</svg>
